<?xml version="1.0" encoding="utf-8"?>
<!-- Generator: Adobe Illustrator 28.2.0, SVG Export Plug-In . SVG Version: 6.00 Build 0)  -->
<svg version="1.1" id="Layer_1" xmlns="http://www.w3.org/2000/svg" xmlns:xlink="http://www.w3.org/1999/xlink" x="0px" y="0px"
	 viewBox="-773.727 -222.265 512 160" enable-background="new -773.727 -222.265 512 160" xml:space="preserve">
<g>
	<rect x="-774.117" y="-221.542" fill="#FFFFFF" width="512" height="160"/>
	<g>
		<g>
			<path fill-rule="evenodd" clip-rule="evenodd" fill="#DC143C" d="M-763.729-215.468c13.331-1.96,31.683,0.309,44.772,2.394
				c47.822,7.631,73.51,26.03,82.389,48.308c8.557-11.168,17.846-22.069,27.015-30.976c5.843-5.688,16.184-13.086,29.091-7.874
				c10.708,4.32,6.361,16.84,5.399,23.429c-3.904,26.573-13.242,79.677,52.019,86.183c11.562,1.159,21.95,0.751,33.514,0.333
				c5.475-0.2,2.93-0.225,8.649,0.2c-10.022,4.145-24.514,5.371-36.779,5.58c-73.16,1.259-83.412-46.516-83.946-76.4
				c-0.013-0.784,0-1.794,0.031-2.961l-0.044,0.058c-12.418,14.271-23.661,27.666-34.753,42.312
				c-7.366,9.75-28.722,5.047-25.168-3.669c14.691-35.998-0.471-65.999-68.507-80.345
				C-739.948-210.989-755.202-212.815-763.729-215.468L-763.729-215.468z"/>
			<path fill="#003893" d="M-520.437-87.468c-18.7,0-34.452-3.296-46.856-9.808c-22.669-11.901-34.457-34.446-35.039-67.01
				c-0.006-0.344-0.006-0.732-0.003-1.156c-10.028,11.551-21.695,25.305-33.365,40.714c-3.855,5.102-11.531,6.359-17.423,5.343
				c-5.988-1.034-11.045-4.544-9.126-9.251c16.34-40.042-6.558-66.92-68.059-79.887c-3.672-0.777-8.033-1.507-12.65-2.281
				c-7.727-1.295-15.716-2.634-21.129-4.318l-1.538-0.478l1.708-0.251c10.542-1.55,25.315-0.766,45.164,2.397
				c54.765,8.739,75.078,30.333,82.395,47.393c9.107-11.799,17.908-21.845,26.174-29.875c5.851-5.697,11.98-8.957,18.214-9.689
				c3.986-0.47,8.004,0.101,11.941,1.69c9.519,3.841,7.631,13.562,6.253,20.66c-0.22,1.133-0.425,2.187-0.561,3.121l-0.262,1.769
				c-4.022,27.152-11.509,77.691,51.687,83.991c11.241,1.127,21.16,0.768,32.643,0.352l0.692-0.025
				c0.901-0.033,1.583-0.061,2.122-0.083c2.068-0.086,2.107-0.085,3.924,0.068c0.63,0.053,1.488,0.125,2.75,0.219l1.745,0.13
				l-1.405,0.581c-8.411,3.479-20.926,5.383-37.195,5.66C-518.577-87.476-519.512-87.468-520.437-87.468z M-600.842-169.009
				l-0.005,1.764c-0.031,1.164-0.044,2.17-0.031,2.952c0.578,32.341,12.216,54.696,34.591,66.443
				c12.726,6.681,29.073,9.885,48.605,9.563c15.038-0.256,26.768-1.914,34.904-4.929c-0.378-0.031-0.697-0.057-0.974-0.08
				c-1.669-0.14-1.67-0.141-3.595-0.061c-0.542,0.022-1.229,0.05-2.134,0.083l-0.693,0.025c-11.099,0.403-21.581,0.781-33.001-0.363
				c-64.489-6.429-56.933-57.435-52.874-84.837l0.261-1.769c0.138-0.94,0.344-2.001,0.565-3.141
				c1.341-6.907,3.179-16.365-5.67-19.936c-3.586-1.448-7.211-1.97-10.774-1.552c-5.809,0.682-11.613,3.811-17.252,9.301
				c-8.504,8.261-17.581,18.67-26.979,30.935l-0.889,1.161l-0.49-1.231c-6.786-17.024-26.5-39.173-81.883-48.011
				c-18.441-2.938-32.385-3.804-42.533-2.634c5.193,1.42,12.283,2.608,19.16,3.76c4.643,0.778,9.027,1.512,12.747,2.299
				c62.277,13.131,85.476,40.317,68.954,80.803c-1.728,4.24,2.789,7.395,8.145,8.32c4.873,0.841,11.898,0.066,15.643-4.888
				c12.219-16.135,24.432-30.453,34.768-42.331L-600.842-169.009z"/>
		</g>
	</g>
	<g>
		<path fill="#DC143C" d="M-530.311-117.995c0.233-0.159,0.487-0.278,0.763-0.358c0.276-0.079,0.545-0.119,0.807-0.119
			c0.319,0,0.581,0.048,0.785,0.143c0.262,0.127,0.393,0.286,0.393,0.477c0,0.191-0.116,0.382-0.349,0.573
			c-1.163,0.923-2.718,1.631-4.666,2.123c-1.948,0.493-4.158,0.74-6.628,0.74c-2.18,0-4.165-0.163-5.953-0.489
			c-1.788-0.326-3.314-0.775-4.579-1.348c-1.265-0.573-2.246-1.253-2.943-2.04c-0.698-0.787-1.047-1.65-1.047-2.588
			c0-0.939,0.341-1.798,1.025-2.577c0.683-0.779,1.642-1.455,2.878-2.028c1.235-0.573,2.732-1.018,4.491-1.336
			c1.759-0.318,3.714-0.477,5.866-0.477c3.604,0,6.454,0.537,8.547,1.61c2.093,1.074,3.198,2.573,3.315,4.497h-17.749
			c0.029,0.605,0.211,1.197,0.545,1.777c0.334,0.581,0.843,1.097,1.527,1.551c0.683,0.453,1.555,0.819,2.616,1.097
			c1.061,0.278,2.347,0.417,3.86,0.417c1.308,0,2.529-0.143,3.663-0.429C-532.012-117.065-531.067-117.47-530.311-117.995z
			 M-534.846-122.504c-0.059-1.05-0.51-1.893-1.352-2.529c-0.844-0.636-1.919-0.954-3.227-0.954c-1.541,0-2.813,0.326-3.816,0.978
			c-1.003,0.652-1.65,1.488-1.94,2.505H-534.846z"/>
		<path fill="#DC143C" d="M-513.61-112.77c0,0.636,0.211,1.093,0.632,1.372c0.422,0.278,0.886,0.489,1.395,0.632
			c0.508,0.143,0.974,0.275,1.395,0.394s0.632,0.338,0.632,0.656c0,0.223-0.174,0.41-0.523,0.561s-0.771,0.227-1.265,0.227h-12.428
			c-0.495,0-0.916-0.076-1.265-0.227c-0.349-0.151-0.523-0.338-0.523-0.561c0-0.318,0.21-0.537,0.632-0.656
			c0.421-0.119,0.886-0.25,1.395-0.394c0.508-0.143,0.974-0.354,1.395-0.632c0.421-0.278,0.632-0.736,0.632-1.372v-10.211
			c0-0.7-0.19-1.189-0.567-1.467c-0.378-0.278-0.792-0.485-1.243-0.62c-0.451-0.135-0.865-0.25-1.243-0.346
			c-0.378-0.096-0.567-0.302-0.567-0.62c0-0.223,0.175-0.41,0.523-0.561c0.349-0.151,0.77-0.227,1.265-0.227h7.457
			c1.512,0,2.268,0.429,2.268,1.288v-0.024c1.105-0.588,2.399-1.026,3.882-1.312c1.482-0.286,2.994-0.429,4.535-0.429
			c1.745,0,3.343,0.159,4.797,0.477c1.453,0.318,2.704,0.76,3.75,1.324c1.046,0.565,1.86,1.241,2.442,2.028
			c0.581,0.787,0.872,1.658,0.872,2.613c0,0.954-0.291,1.825-0.872,2.613c-0.582,0.787-1.395,1.464-2.442,2.028
			c-1.047,0.565-2.298,1.006-3.75,1.324c-1.454,0.318-3.053,0.477-4.797,0.477c-1.541,0-3.053-0.143-4.535-0.429
			c-1.483-0.286-2.777-0.723-3.882-1.312V-112.77z M-507.286-115.991c1.134,0,2.086-0.159,2.856-0.477
			c0.77-0.318,1.396-0.72,1.875-1.205c0.48-0.485,0.821-1.014,1.025-1.587c0.203-0.572,0.305-1.105,0.305-1.598
			c0-0.509-0.102-1.046-0.305-1.61c-0.204-0.565-0.545-1.089-1.025-1.575c-0.479-0.485-1.105-0.887-1.875-1.205
			c-0.77-0.318-1.722-0.477-2.856-0.477c-1.918,0-3.445,0.438-4.579,1.312c-1.133,0.875-1.701,2.06-1.701,3.555
			c0,1.495,0.567,2.68,1.701,3.555C-510.732-116.428-509.205-115.991-507.286-115.991z"/>
		<path fill="#DC143C" d="M-470.002-116.158c-1.106,0.589-2.399,1.034-3.882,1.336c-1.483,0.302-2.995,0.454-4.535,0.454
			c-1.745,0-3.344-0.159-4.797-0.477c-1.454-0.318-2.704-0.763-3.75-1.336c-1.046-0.572-1.86-1.256-2.442-2.052
			c-0.582-0.795-0.872-1.67-0.872-2.624c0-0.954,0.29-1.825,0.872-2.613c0.581-0.787,1.395-1.467,2.442-2.04
			c1.047-0.572,2.297-1.018,3.75-1.336c1.454-0.318,3.053-0.477,4.797-0.477c1.598,0,3.132,0.155,4.601,0.465
			c1.467,0.31,2.74,0.744,3.816,1.3h0.872c1.163,0,1.999-0.103,2.508-0.31c0.508-0.207,0.894-0.433,1.156-0.68
			c0.262-0.247,0.502-0.473,0.72-0.68s0.617-0.31,1.2-0.31c0.407,0,0.748,0.096,1.025,0.286c0.275,0.191,0.414,0.422,0.414,0.692
			v7.825c0,0.636,0.211,1.094,0.632,1.372c0.421,0.278,0.887,0.489,1.395,0.632c0.508,0.143,0.974,0.275,1.395,0.394
			s0.632,0.338,0.632,0.656c0,0.223-0.175,0.41-0.523,0.561c-0.349,0.151-0.771,0.227-1.265,0.227h-7.893
			C-469.247-114.894-470.002-115.315-470.002-116.158z M-476.326-115.967c1.919,0,3.445-0.441,4.579-1.324
			c1.134-0.883,1.701-2.071,1.701-3.567c0-1.495-0.567-2.68-1.701-3.555c-1.134-0.874-2.66-1.312-4.579-1.312
			c-1.134,0-2.087,0.159-2.857,0.477c-0.77,0.318-1.395,0.72-1.875,1.205c-0.48,0.485-0.822,1.01-1.025,1.575
			c-0.204,0.565-0.305,1.102-0.305,1.61c0,0.493,0.102,1.026,0.305,1.598c0.203,0.573,0.545,1.106,1.025,1.599
			c0.479,0.493,1.104,0.899,1.875,1.217C-478.412-116.126-477.46-115.967-476.326-115.967z"/>
		<path fill="#DC143C" d="M-454.086-132.787h7.457c1.512,0,2.268,0.429,2.268,1.288v12.764c0,0.636,0.211,1.094,0.632,1.372
			c0.422,0.278,0.887,0.489,1.395,0.632c0.508,0.143,0.974,0.275,1.395,0.394s0.632,0.338,0.632,0.656
			c0,0.223-0.174,0.41-0.523,0.561c-0.349,0.151-0.771,0.227-1.265,0.227h-12.428c-0.495,0-0.916-0.075-1.265-0.227
			c-0.348-0.151-0.523-0.337-0.523-0.561c0-0.318,0.21-0.537,0.632-0.656c0.421-0.119,0.887-0.25,1.395-0.394
			c0.508-0.143,0.974-0.354,1.395-0.632c0.421-0.278,0.632-0.735,0.632-1.372v-10.211c0-0.7-0.19-1.189-0.567-1.467
			c-0.378-0.278-0.792-0.485-1.243-0.62c-0.451-0.135-0.865-0.25-1.243-0.346c-0.378-0.096-0.567-0.302-0.567-0.62
			c0-0.223,0.175-0.41,0.523-0.561C-455.001-132.711-454.58-132.787-454.086-132.787z"/>
		<path fill="#DC143C" d="M-436.337-126.823h7.457c1.512,0,2.268,0.429,2.268,1.288v6.799c0,0.636,0.211,1.094,0.632,1.372
			c0.422,0.278,0.887,0.489,1.395,0.632c0.508,0.143,0.974,0.275,1.395,0.394s0.632,0.338,0.632,0.656
			c0,0.223-0.174,0.41-0.523,0.561c-0.349,0.151-0.771,0.227-1.265,0.227h-12.428c-0.495,0-0.916-0.075-1.265-0.227
			c-0.349-0.151-0.523-0.337-0.523-0.561c0-0.318,0.21-0.537,0.632-0.656c0.421-0.119,0.887-0.25,1.395-0.394
			c0.508-0.143,0.974-0.354,1.395-0.632c0.421-0.278,0.632-0.735,0.632-1.372v-4.247c0-0.7-0.19-1.189-0.567-1.467
			c-0.378-0.278-0.792-0.485-1.243-0.62c-0.451-0.135-0.865-0.25-1.243-0.346c-0.378-0.096-0.567-0.302-0.567-0.62
			c0-0.223,0.175-0.41,0.523-0.561C-437.253-126.747-436.832-126.823-436.337-126.823z M-431.234-127.968
			c-0.61,0-1.185-0.063-1.723-0.191c-0.539-0.127-1.003-0.298-1.395-0.513c-0.392-0.215-0.706-0.469-0.938-0.763
			c-0.234-0.294-0.349-0.608-0.349-0.942c0-0.334,0.116-0.648,0.349-0.942c0.232-0.294,0.545-0.549,0.938-0.764
			c0.393-0.214,0.857-0.385,1.395-0.513c0.537-0.127,1.112-0.191,1.723-0.191c0.61,0,1.184,0.064,1.723,0.191
			c0.537,0.127,1.003,0.298,1.395,0.513c0.393,0.215,0.704,0.469,0.938,0.764c0.232,0.294,0.348,0.608,0.348,0.942
			c0,0.334-0.116,0.648-0.348,0.942c-0.234,0.295-0.545,0.549-0.938,0.763c-0.392,0.215-0.858,0.386-1.395,0.513
			C-430.051-128.031-430.624-127.968-431.234-127.968z"/>
		<path fill="#DC143C" d="M-390.156-127.3c1.017,0,1.969,0.083,2.856,0.25c0.887,0.167,1.658,0.398,2.311,0.692
			c0.652,0.294,1.177,0.636,1.569,1.026c0.392,0.39,0.588,0.815,0.588,1.276c0,0.318-0.102,0.596-0.304,0.835
			c-0.204,0.239-0.48,0.442-0.829,0.608c-0.349,0.167-0.741,0.295-1.178,0.382c-0.434,0.088-0.887,0.131-1.351,0.131
			c-0.64,0-1.243-0.083-1.81-0.25c-0.567-0.167-1.011-0.425-1.33-0.775c-0.204-0.238-0.364-0.493-0.48-0.763
			c-0.116-0.27-0.261-0.525-0.436-0.763c-0.175-0.238-0.414-0.437-0.72-0.596c-0.305-0.159-0.778-0.238-1.417-0.238
			c-0.785,0-1.476,0.123-2.071,0.37c-0.596,0.247-1.105,0.553-1.527,0.918c-0.422,0.366-0.734,0.772-0.938,1.217
			c-0.204,0.445-0.305,0.875-0.305,1.288v2.958c0,0.636,0.211,1.094,0.632,1.372c0.422,0.278,0.887,0.489,1.395,0.632
			c0.508,0.143,0.974,0.275,1.395,0.394c0.422,0.119,0.632,0.338,0.632,0.656c0,0.223-0.174,0.41-0.523,0.561
			c-0.349,0.151-0.771,0.227-1.265,0.227h-12.428c-0.495,0-0.916-0.075-1.265-0.227c-0.348-0.151-0.523-0.337-0.523-0.561
			c0-0.318,0.21-0.537,0.632-0.656c0.421-0.119,0.887-0.25,1.395-0.394c0.508-0.143,0.974-0.354,1.395-0.632
			c0.421-0.278,0.632-0.735,0.632-1.372v-4.247c0-0.7-0.19-1.189-0.567-1.467c-0.378-0.278-0.792-0.485-1.243-0.62
			c-0.451-0.135-0.865-0.25-1.243-0.346c-0.378-0.096-0.567-0.302-0.567-0.62c0-0.223,0.175-0.41,0.523-0.561
			c0.349-0.151,0.77-0.227,1.265-0.227h7.457c1.512,0,2.268,0.429,2.268,1.288c0.029,0,0.219-0.091,0.567-0.275
			c0.349-0.183,0.835-0.385,1.461-0.608c0.625-0.223,1.388-0.425,2.29-0.608C-392.308-127.208-391.29-127.3-390.156-127.3z"/>
		<path fill="#DC143C" d="M-302.683-114.894c-1.221,0.318-2.528,0.477-3.924,0.477c-2.006,0-3.599-0.322-4.775-0.967
			c-1.178-0.644-1.766-1.515-1.766-2.612v-7.157h-2.05c-0.466,0-0.806-0.087-1.025-0.263c-0.219-0.175-0.327-0.366-0.327-0.573
			c0-0.206,0.108-0.397,0.327-0.572c0.219-0.175,0.559-0.262,1.025-0.262c0.872,0,1.701-0.083,2.486-0.25s1.482-0.397,2.092-0.692
			c0.612-0.294,1.113-0.64,1.505-1.038c0.393-0.397,0.633-0.819,0.72-1.264c0.058-0.286,0.247-0.505,0.568-0.656
			c0.319-0.151,0.667-0.227,1.046-0.227c0.378,0,0.725,0.083,1.046,0.25c0.319,0.167,0.48,0.41,0.48,0.728v3.149h3.315
			c0.552,0,0.965,0.088,1.242,0.262c0.277,0.175,0.415,0.366,0.415,0.572c0,0.207-0.138,0.398-0.415,0.573
			c-0.277,0.175-0.69,0.263-1.242,0.263h-3.315v6.585c0,0.796,0.284,1.336,0.85,1.622s1.112,0.429,1.635,0.429
			c0.203,0,0.393-0.016,0.566-0.048c0.203-0.031,0.393-0.048,0.568-0.048c0.203,0,0.414,0.032,0.632,0.096
			c0.219,0.064,0.334,0.143,0.349,0.238c0.014,0.096,0.021,0.151,0.021,0.167c0,0.175-0.152,0.37-0.457,0.584
			C-301.395-115.311-301.926-115.1-302.683-114.894z"/>
		<path fill="#DC143C" d="M-273.595-118.067c0,0.573-0.305,1.082-0.916,1.527s-1.468,0.827-2.572,1.145
			c-1.106,0.318-2.429,0.561-3.969,0.728c-1.542,0.167-3.242,0.25-5.102,0.25c-1.774,0-3.41-0.076-4.906-0.227
			c-1.498-0.151-2.784-0.366-3.86-0.644c-1.076-0.278-1.912-0.612-2.507-1.002c-0.596-0.389-0.894-0.815-0.894-1.276
			c0-0.493,0.305-0.902,0.916-1.229c0.61-0.326,1.381-0.489,2.311-0.489c0.757,0,1.454,0.119,2.094,0.358
			c0.639,0.238,1.119,0.636,1.439,1.193c0.436,0.747,1.039,1.269,1.809,1.563c0.771,0.294,1.898,0.442,3.38,0.442
			c1.309,0,2.304-0.096,2.988-0.287c0.683-0.191,1.025-0.469,1.025-0.835c0-0.27-0.19-0.521-0.568-0.751s-0.865-0.445-1.461-0.644
			c-0.596-0.199-1.279-0.39-2.05-0.573c-0.771-0.183-1.547-0.37-2.332-0.561c-1.018-0.238-2.05-0.493-3.096-0.763
			c-1.048-0.27-1.985-0.568-2.814-0.895c-0.829-0.326-1.505-0.695-2.027-1.109c-0.524-0.413-0.785-0.883-0.785-1.408
			c0-0.556,0.297-1.062,0.893-1.515c0.596-0.454,1.432-0.847,2.508-1.181c1.075-0.334,2.355-0.593,3.837-0.775
			c1.483-0.183,3.11-0.275,4.885-0.275c1.454,0,2.798,0.06,4.033,0.179c1.236,0.119,2.334,0.294,3.293,0.525
			c0.96,0.231,1.759,0.505,2.398,0.823c0.64,0.318,1.09,0.676,1.353,1.074c0.145,0.207,0.217,0.406,0.217,0.596
			c0,0.318-0.233,0.64-0.697,0.966c-0.466,0.326-1.265,0.489-2.399,0.489c-0.785,0-1.461-0.115-2.027-0.346
			c-0.568-0.23-0.938-0.544-1.113-0.942c-0.319-0.716-0.857-1.236-1.613-1.563c-0.757-0.326-1.833-0.489-3.228-0.489
			c-1.192,0-2.122,0.108-2.791,0.322c-0.669,0.215-1.002,0.513-1.002,0.895c0,0.223,0.175,0.429,0.522,0.62
			c0.349,0.191,0.808,0.374,1.374,0.549c0.566,0.176,1.221,0.35,1.963,0.525c0.741,0.175,1.489,0.358,2.246,0.549
			c1.046,0.255,2.121,0.525,3.227,0.811c1.104,0.286,2.099,0.605,2.987,0.954c0.887,0.35,1.614,0.748,2.18,1.193
			C-273.877-119.124-273.595-118.623-273.595-118.067z"/>
	</g>
	<g>
		<path fill="#003893" d="M-728.717-71.893c-0.58,0.033-1.221-0.167-1.587-0.401c-0.214-0.15-0.336-0.317-0.427-0.501
			c-0.061-0.1-0.214-0.634-0.244-0.735c-0.58,0.334-1.282,0.618-2.045,0.835c-0.855,0.234-1.831,0.384-2.808,0.384
			c-0.855,0-1.709-0.1-2.442-0.334c-0.58-0.184-1.099-0.468-1.434-0.801c-0.519-0.501-0.702-1.102-0.732-1.687
			c-0.061-1.252,0.855-2.588,2.32-3.557c1.16-0.768,2.686-1.319,4.425-1.603c0.885-0.15,1.862-0.167,2.777-0.117
			c0.427,0.017,0.855,0.117,1.221,0.217c0.153,0.05,0.763,0.25,0.885,0.317c0.946,0.434,1.038,1.202,0.183,1.686
			c-0.061,0.033,0.092,0.017,0.183,0.017c0.794,0.083,1.465,0.451,1.587,0.885c0.092,0.25-0.214,1.436-0.244,1.686
			c-0.092,0.801-0.092,1.636,0.305,2.422c0.153,0.35-0.183,0.768-0.671,1.018C-727.771-71.977-728.259-71.91-728.717-71.893z
			 M-735.828-74.481c0.732,0,1.465-0.267,2.014-0.551c1.007-0.518,1.801-1.186,2.503-1.837c0.366-0.334,0.61-0.718,1.099-1.002
			c0.061-0.033-0.061-0.017-0.153-0.017c-0.366-0.033-0.702-0.117-0.946-0.25c-0.061-0.033-0.214-0.134-0.305-0.134
			c-1.129-0.017-2.32,0.301-3.083,0.751c-0.916,0.501-1.496,1.186-1.709,1.87c-0.122,0.367-0.092,0.751,0.122,1.102
			C-736.225-74.481-735.981-74.481-735.828-74.481z"/>
		<path fill="#003893" d="M-712.599-71.676c-0.397-0.033-0.824-0.05-1.19-0.167c-0.031-0.017-0.092,0-0.153,0.016
			c-0.794,0.067-1.679-0.15-2.075-0.534c-0.366-0.35-0.885-1.886-0.946-2.287c-0.366-1.971-0.092-3.991,0.763-5.911
			c0.244-0.534,1.343-2.972,1.801-3.456c0.275-0.267,0.732-0.484,1.221-0.601c0.519-0.134,1.19-0.067,1.679,0.05
			c0.702,0.184,1.129,0.735,1.007,1.135c-0.092,0.25-0.427,0.451-0.549,0.685c-0.549,1.002-1.038,2.004-1.434,3.006
			c1.648-0.568,3.449-0.768,5.372-0.618c1.495,0.117,3.021,0.568,3.998,1.202c0.916,0.618,1.465,1.453,1.465,2.237
			c0,1.052-0.58,2.037-1.74,2.889c-1.16,0.835-2.808,1.503-4.547,1.937C-709.363-71.727-711.012-71.609-712.599-71.676z
			 M-709.302-74.131c1.099-0.317,2.136-0.735,2.838-1.286c0.885-0.668,1.282-1.82,0.244-2.404c-0.427-0.234-1.038-0.367-1.648-0.401
			c-1.19-0.083-2.564,0.217-3.327,0.718c-0.702,0.417-1.038,1.002-1.251,1.57c-0.244,0.685-0.305,1.386-0.153,2.07
			C-711.469-73.813-710.279-73.847-709.302-74.131z"/>
		<path fill="#003893" d="M-695.809-71.776c-0.763,0-1.526-0.1-2.167-0.301c-0.946-0.318-1.709-0.885-2.014-1.469
			c-0.488-0.852-0.336-1.82,0.092-2.689c0.366-0.668,1.373-1.252,2.533-1.553c-1.526-0.384-1.74-1.519-0.275-1.987
			c0.458-0.15,0.855-0.367,1.343-0.518c0.549-0.167,1.221-0.284,1.862-0.284c0.824,0,1.648,0.167,2.32,0.417
			c2.747,1.019,4.09,2.922,3.266,4.659c-0.519,1.119-1.618,2.221-3.235,2.939C-693.123-72.11-694.497-71.776-695.809-71.776z
			 M-695.778-73.947c1.434-0.067,2.686-1.236,3.052-1.987c0.153-0.301,0.214-0.618,0.092-0.935c-0.183-0.584-0.824-1.202-1.77-1.503
			c-0.397,0.15-0.732,0.351-1.129,0.501c1.099,0.167,1.77,0.852,1.373,1.453c-0.244,0.351-0.885,0.668-1.557,0.701
			c-0.061,0-0.214,0-0.244,0.017c-0.305,0.184-0.366,0.885-0.366,1.135c0,0.184,0.092,0.534,0.366,0.601
			C-695.931-73.947-695.809-73.947-695.778-73.947z"/>
		<path fill="#003893" d="M-686.529-72.561c-0.427-0.751-0.488-1.57-0.488-2.371c0-1.219,0.244-2.455,0.671-3.657
			c0.153-0.384,0.336-0.751,0.641-1.085c0.244-0.301,0.549-0.584,1.068-0.751c1.465-0.451,3.235,0.217,2.93,1.135
			c-0.031,0.117-0.122,0.234-0.214,0.351c0.549-0.351,1.16-0.668,1.831-0.918c0.641-0.25,1.434-0.417,2.228-0.434
			c2.258-0.033,3.784,1.336,3.998,2.571c0.244,1.152-0.336,2.304-0.641,3.44c-0.122,0.417-0.244,0.885-0.031,1.302
			c0.214,0.401-0.275,0.935-0.946,1.152c-1.129,0.351-2.594,0.017-2.93-0.668c-0.214-0.434-0.214-0.885-0.153-1.319
			c0.061-0.768,0.397-1.52,0.61-2.288c0.122-0.367,0.214-0.751,0.183-1.119c0-0.267-0.061-0.534-0.275-0.785
			c-1.16,0.534-1.984,1.286-2.503,2.054c-0.336,0.468-1.77,3.073-2.014,3.54c-0.153,0.317-0.671,0.601-1.221,0.718
			C-684.973-71.459-686.163-71.893-686.529-72.561z"/>
		<path fill="#003893" d="M-658.082-72.711c-0.458-0.902-0.702-1.82-0.824-2.755c-0.946,0.919-2.045,1.82-3.54,2.488
			c-1.099,0.501-2.503,0.885-3.937,1.002c-0.946,0.067-1.953,0.033-2.838-0.151c-0.732-0.167-1.434-0.434-1.953-0.768
			c-0.641-0.417-1.038-0.985-1.16-1.536c-0.153-0.885,0.244-1.82,1.038-2.605c0.855-0.818,2.197-1.503,3.632-2.054
			c1.831-0.685,4.029-1.019,6.226-0.902c0.61,0.017,1.221,0.067,1.77,0.2c0.732-1.102,1.282-2.271,1.74-3.423
			c0.092-0.234,0.244-0.468,0.519-0.651c0.702-0.451,1.984-0.518,2.808-0.134c0.336,0.167,0.549,0.401,0.671,0.634
			c0.305,0.651-0.458,3.306-0.61,3.974c-0.275,1.202-0.519,2.404-0.427,3.607c0.031,0.384,0.397,1.987,0.641,2.338
			c0.092,0.15,0.183,0.301,0.183,0.468c0,0.217-0.122,0.45-0.366,0.634C-655.488-71.593-657.593-71.827-658.082-72.711z
			 M-666.902-74.131c0.885-0.083,1.74-0.367,2.35-0.735c1.434-0.818,2.442-1.837,3.327-2.855c0.031-0.033-0.031-0.083-0.092-0.083
			c-1.068-0.117-2.228-0.017-3.205,0.234c-1.343,0.334-2.564,0.918-3.327,1.603c-0.366,0.351-0.58,0.785-0.549,1.186
			c0,0.2,0.092,0.45,0.427,0.568C-667.696-74.098-667.268-74.098-666.902-74.131z"/>
		<path fill="#003893" d="M-639.368-71.676c-0.397-0.033-0.824-0.05-1.19-0.167c-0.031-0.017-0.092,0-0.153,0.016
			c-0.794,0.067-1.679-0.15-2.075-0.534c-0.366-0.35-0.885-1.886-0.946-2.287c-0.366-1.971-0.092-3.991,0.763-5.911
			c0.244-0.534,1.343-2.972,1.801-3.456c0.275-0.267,0.732-0.484,1.221-0.601c0.519-0.134,1.19-0.067,1.679,0.05
			c0.702,0.184,1.129,0.735,1.007,1.135c-0.092,0.25-0.427,0.451-0.549,0.685c-0.549,1.002-1.038,2.004-1.434,3.006
			c1.648-0.568,3.449-0.768,5.372-0.618c1.495,0.117,3.021,0.568,3.998,1.202c0.916,0.618,1.465,1.453,1.465,2.237
			c0,1.052-0.58,2.037-1.74,2.889c-1.16,0.835-2.808,1.503-4.547,1.937C-636.133-71.727-637.781-71.609-639.368-71.676z
			 M-636.072-74.131c1.099-0.317,2.136-0.735,2.838-1.286c0.885-0.668,1.282-1.82,0.244-2.404c-0.427-0.234-1.038-0.367-1.648-0.401
			c-1.19-0.083-2.564,0.217-3.327,0.718c-0.702,0.417-1.038,1.002-1.251,1.57c-0.244,0.685-0.305,1.386-0.153,2.07
			C-638.239-73.813-637.048-73.847-636.072-74.131z"/>
		<path fill="#003893" d="M-624.593-72.778c-1.19-0.485-1.923-1.302-2.289-2.088c-0.244-0.501-0.244-1.052-0.153-1.57
			c0.122-0.818,0.794-1.636,1.77-2.271c1.129-0.751,2.777-1.319,4.486-1.57c0.671-0.1,1.373-0.167,2.045-0.167
			c1.251,0.033,2.625,0.217,3.54,0.685c0.671,0.351,1.251,0.835,1.343,1.352c0.061,0.417-0.061,0.868-0.397,1.252
			c-0.427,0.417-1.16,0.751-1.923,0.985c-1.465,0.484-3.144,0.818-4.853,0.852c-0.671,0.017-1.343-0.033-2.014-0.067
			c0.122,0.368,0.488,0.751,1.038,0.969c0.641,0.234,1.526,0.317,2.258,0.2c0.366-0.067,1.557-0.384,1.831-0.518
			c1.373-0.751,3.693-0.1,3.357,0.935c-0.061,0.2-0.244,0.367-0.458,0.534c-0.183,0.151-1.282,0.534-1.587,0.634
			c-1.038,0.351-2.258,0.568-3.479,0.618C-621.632-71.927-623.311-72.261-624.593-72.778z M-619.129-77.771
			c0.458-0.1,0.916-0.217,1.282-0.384c-0.122-0.05-0.305-0.067-0.458-0.083c-1.282-0.117-2.686,0.267-3.632,0.735
			C-620.991-77.437-619.984-77.571-619.129-77.771z"/>
		<path fill="#003893" d="M-611.009-69.689c-0.183-0.367-0.397-0.735-0.336-1.118c0.061-0.301,0.488-0.585,0.946-0.752
			c0.366-0.15,0.885-0.167,1.312-0.134c0.458,0.017,0.885,0.184,1.19,0.351c0.305,0.167,0.458,0.417,0.519,0.668
			c0.031,0.1,0.153,0.45,0.305,0.534c0.183,0.083,0.671,0.083,0.916,0.05c0.763-0.116,1.343-0.517,1.709-0.902
			c1.099-1.069,1.434-2.354,1.465-3.573c-0.916,0.518-1.984,0.986-3.235,1.236c-0.671,0.117-1.373,0.167-2.075,0.134
			c-0.946-0.05-1.862-0.367-2.503-0.735c-0.702-0.417-1.068-0.985-1.343-1.536c-0.244-0.518-0.305-1.052-0.305-1.57
			c0-0.484,0.244-0.968,0.488-1.436c0.122-0.284,0.214-0.568,0.275-0.852c0.031-0.25,0.336-0.484,0.671-0.651
			c0.397-0.217,1.038-0.284,1.587-0.25c0.58,0.017,1.068,0.267,1.404,0.518c0.336,0.267,0.275,0.651,0.214,0.968
			c-0.031,0.184-0.458,1.035-0.519,1.202c-0.275,0.584-0.183,1.219,0.153,1.77c0.092,0.15,0.183,0.301,0.366,0.417
			c0.031,0.017,0.122,0,0.153,0c0.427-0.067,0.794-0.234,1.16-0.384c0.732-0.334,1.312-0.751,1.74-1.219
			c0.671-0.718,0.977-1.536,1.373-2.304c0.366-0.718,2.228-0.985,3.174-0.468c0.275,0.134,0.519,0.301,0.61,0.484
			c0.336,0.651,0.58,3.757,0.58,4.425c0.031,1.302-0.336,2.621-1.099,3.84c-0.427,0.651-1.068,1.285-1.862,1.82
			c-0.641,0.434-1.465,0.785-2.381,1.002C-607.041-67.502-610.276-68.136-611.009-69.689z"/>
		<path fill="#003893" d="M-592.847-71.776c-0.763,0-1.526-0.1-2.167-0.301c-0.946-0.318-1.709-0.885-2.014-1.469
			c-0.488-0.852-0.336-1.82,0.092-2.689c0.366-0.668,1.373-1.252,2.533-1.553c-1.526-0.384-1.74-1.519-0.275-1.987
			c0.458-0.15,0.855-0.367,1.343-0.518c0.549-0.167,1.221-0.284,1.862-0.284c0.824,0,1.648,0.167,2.32,0.417
			c2.747,1.019,4.09,2.922,3.266,4.659c-0.519,1.119-1.618,2.221-3.235,2.939C-590.161-72.11-591.534-71.776-592.847-71.776z
			 M-592.816-73.947c1.434-0.067,2.686-1.236,3.052-1.987c0.153-0.301,0.214-0.618,0.092-0.935c-0.183-0.584-0.824-1.202-1.77-1.503
			c-0.397,0.15-0.732,0.351-1.129,0.501c1.099,0.167,1.77,0.852,1.373,1.453c-0.244,0.351-0.885,0.668-1.557,0.701
			c-0.061,0-0.214,0-0.244,0.017c-0.305,0.184-0.366,0.885-0.366,1.135c0,0.184,0.092,0.534,0.366,0.601
			C-592.969-73.947-592.847-73.947-592.816-73.947z"/>
		<path fill="#003893" d="M-583.566-72.561c-0.427-0.751-0.488-1.57-0.488-2.371c0-1.219,0.244-2.455,0.671-3.657
			c0.153-0.384,0.336-0.751,0.641-1.085c0.244-0.301,0.549-0.584,1.068-0.751c1.465-0.451,3.235,0.217,2.93,1.135
			c-0.031,0.117-0.122,0.234-0.214,0.351c0.549-0.351,1.16-0.668,1.831-0.918c0.641-0.25,1.434-0.417,2.228-0.434
			c2.258-0.033,3.784,1.336,3.998,2.571c0.244,1.152-0.336,2.304-0.641,3.44c-0.122,0.417-0.244,0.885-0.031,1.302
			c0.214,0.401-0.275,0.935-0.946,1.152c-1.129,0.351-2.594,0.017-2.93-0.668c-0.214-0.434-0.214-0.885-0.153-1.319
			c0.061-0.768,0.397-1.52,0.61-2.288c0.122-0.367,0.214-0.751,0.183-1.119c0-0.267-0.061-0.534-0.275-0.785
			c-1.16,0.534-1.984,1.286-2.503,2.054c-0.336,0.468-1.77,3.073-2.014,3.54c-0.153,0.317-0.671,0.601-1.221,0.718
			C-582.01-71.459-583.2-71.893-583.566-72.561z"/>
		<path fill="#003893" d="M-555.119-72.711c-0.458-0.902-0.702-1.82-0.824-2.755c-0.946,0.919-2.045,1.82-3.54,2.488
			c-1.099,0.501-2.503,0.885-3.937,1.002c-0.946,0.067-1.953,0.033-2.838-0.151c-0.732-0.167-1.434-0.434-1.953-0.768
			c-0.641-0.417-1.038-0.985-1.16-1.536c-0.153-0.885,0.244-1.82,1.038-2.605c0.855-0.818,2.197-1.503,3.632-2.054
			c1.831-0.685,4.029-1.019,6.226-0.902c0.61,0.017,1.221,0.067,1.77,0.2c0.732-1.102,1.282-2.271,1.74-3.423
			c0.092-0.234,0.244-0.468,0.519-0.651c0.702-0.451,1.984-0.518,2.808-0.134c0.336,0.167,0.549,0.401,0.671,0.634
			c0.305,0.651-0.458,3.306-0.61,3.974c-0.275,1.202-0.519,2.404-0.427,3.607c0.031,0.384,0.397,1.987,0.641,2.338
			c0.092,0.15,0.183,0.301,0.183,0.468c0,0.217-0.122,0.45-0.366,0.634C-552.525-71.593-554.631-71.827-555.119-72.711z
			 M-563.94-74.131c0.885-0.083,1.74-0.367,2.35-0.735c1.434-0.818,2.442-1.837,3.327-2.855c0.031-0.033-0.031-0.083-0.092-0.083
			c-1.068-0.117-2.228-0.017-3.205,0.234c-1.343,0.334-2.564,0.918-3.327,1.603c-0.366,0.351-0.58,0.785-0.549,1.186
			c0,0.2,0.092,0.45,0.427,0.568C-564.733-74.098-564.306-74.098-563.94-74.131z"/>
		<path fill="#003893" d="M-536.406-71.676c-0.397-0.033-0.824-0.05-1.19-0.167c-0.031-0.017-0.092,0-0.153,0.016
			c-0.794,0.067-1.679-0.15-2.075-0.534c-0.366-0.35-0.885-1.886-0.946-2.287c-0.366-1.971-0.092-3.991,0.763-5.911
			c0.244-0.534,1.343-2.972,1.801-3.456c0.275-0.267,0.732-0.484,1.221-0.601c0.519-0.134,1.19-0.067,1.679,0.05
			c0.702,0.184,1.129,0.735,1.007,1.135c-0.092,0.25-0.427,0.451-0.549,0.685c-0.549,1.002-1.038,2.004-1.434,3.006
			c1.648-0.568,3.449-0.768,5.372-0.618c1.495,0.117,3.021,0.568,3.998,1.202c0.916,0.618,1.465,1.453,1.465,2.237
			c0,1.052-0.58,2.037-1.74,2.889c-1.16,0.835-2.808,1.503-4.547,1.937C-533.17-71.727-534.819-71.609-536.406-71.676z
			 M-533.109-74.131c1.099-0.317,2.136-0.735,2.838-1.286c0.885-0.668,1.282-1.82,0.244-2.404c-0.427-0.234-1.038-0.367-1.648-0.401
			c-1.19-0.083-2.564,0.217-3.327,0.718c-0.702,0.417-1.038,1.002-1.251,1.57c-0.244,0.685-0.305,1.386-0.153,2.07
			C-535.276-73.813-534.086-73.847-533.109-74.131z"/>
		<path fill="#003893" d="M-519.616-71.776c-0.763,0-1.526-0.1-2.167-0.301c-0.946-0.318-1.709-0.885-2.014-1.469
			c-0.488-0.852-0.336-1.82,0.092-2.689c0.366-0.668,1.373-1.252,2.533-1.553c-1.526-0.384-1.74-1.519-0.275-1.987
			c0.458-0.15,0.855-0.367,1.343-0.518c0.549-0.167,1.221-0.284,1.862-0.284c0.824,0,1.648,0.167,2.32,0.417
			c2.747,1.019,4.09,2.922,3.266,4.659c-0.519,1.119-1.618,2.221-3.235,2.939C-516.93-72.11-518.304-71.776-519.616-71.776z
			 M-519.585-73.947c1.434-0.067,2.686-1.236,3.052-1.987c0.153-0.301,0.214-0.618,0.092-0.935c-0.183-0.584-0.824-1.202-1.77-1.503
			c-0.397,0.15-0.732,0.351-1.129,0.501c1.099,0.167,1.77,0.852,1.373,1.453c-0.244,0.351-0.885,0.668-1.557,0.701
			c-0.061,0-0.214,0-0.244,0.017c-0.305,0.184-0.366,0.885-0.366,1.135c0,0.184,0.092,0.534,0.366,0.601
			C-519.738-73.947-519.616-73.947-519.585-73.947z"/>
		<path fill="#003893" d="M-508.84-71.843c-0.61-0.1-1.221-0.401-1.404-0.735c-0.183-0.284-0.244-0.585-0.305-0.868
			c-0.366-1.954-0.427-4.008,0.549-5.895c0.183-0.351,0.458-0.718,0.977-0.935c0.58-0.25,1.282-0.317,1.953-0.184
			c0.305,0.067,0.58,0.184,0.794,0.301c0.458,0.25,0.58,0.701,0.397,1.035c0.946-0.501,2.045-0.968,3.327-1.169
			c0.763-0.117,1.648-0.15,2.411,0.017c0.885,0.167,1.618,0.584,2.045,1.035c0.61,0.668,0.855,1.436,0.855,2.171
			c0,0.284-0.244,0.584-0.61,0.785c-1.251,0.685-3.388,0.167-3.388-0.801c0-0.384-0.061-0.751-0.336-1.102
			c-1.038,0.234-1.831,0.751-2.442,1.269c-0.794,0.718-1.404,1.503-1.77,2.305c-0.275,0.584-0.427,1.185-0.549,1.786
			C-506.46-72.144-507.619-71.676-508.84-71.843z"/>
		<path fill="#003893" d="M-481.828-72.711c-0.458-0.902-0.702-1.82-0.824-2.755c-0.946,0.919-2.045,1.82-3.54,2.488
			c-1.099,0.501-2.503,0.885-3.937,1.002c-0.946,0.067-1.953,0.033-2.838-0.151c-0.732-0.167-1.434-0.434-1.953-0.768
			c-0.641-0.417-1.038-0.985-1.16-1.536c-0.153-0.885,0.244-1.82,1.038-2.605c0.855-0.818,2.197-1.503,3.632-2.054
			c1.831-0.685,4.029-1.019,6.226-0.902c0.61,0.017,1.221,0.067,1.77,0.2c0.732-1.102,1.282-2.271,1.74-3.423
			c0.092-0.234,0.244-0.468,0.519-0.651c0.702-0.451,1.984-0.518,2.808-0.134c0.336,0.167,0.549,0.401,0.671,0.634
			c0.305,0.651-0.458,3.306-0.61,3.974c-0.275,1.202-0.519,2.404-0.427,3.607c0.031,0.384,0.397,1.987,0.641,2.338
			c0.092,0.15,0.183,0.301,0.183,0.468c0,0.217-0.122,0.45-0.366,0.634C-479.233-71.593-481.339-71.827-481.828-72.711z
			 M-490.648-74.131c0.885-0.083,1.74-0.367,2.35-0.735c1.434-0.818,2.442-1.837,3.327-2.855c0.031-0.033-0.031-0.083-0.092-0.083
			c-1.068-0.117-2.228-0.017-3.205,0.234c-1.343,0.334-2.564,0.918-3.327,1.603c-0.366,0.351-0.58,0.785-0.549,1.186
			c0,0.2,0.092,0.45,0.427,0.568C-491.442-74.098-491.014-74.098-490.648-74.131z"/>
		<path fill="#003893" d="M-473.248-72.778c-1.19-0.485-1.923-1.302-2.289-2.088c-0.244-0.501-0.244-1.052-0.153-1.57
			c0.122-0.818,0.794-1.636,1.77-2.271c1.129-0.751,2.777-1.319,4.486-1.57c0.671-0.1,1.373-0.167,2.045-0.167
			c1.251,0.033,2.625,0.217,3.54,0.685c0.671,0.351,1.251,0.835,1.343,1.352c0.061,0.417-0.061,0.868-0.397,1.252
			c-0.427,0.417-1.16,0.751-1.923,0.985c-1.465,0.484-3.144,0.818-4.853,0.852c-0.671,0.017-1.343-0.033-2.014-0.067
			c0.122,0.368,0.488,0.751,1.038,0.969c0.641,0.234,1.526,0.317,2.258,0.2c0.366-0.067,1.557-0.384,1.831-0.518
			c1.373-0.751,3.693-0.1,3.357,0.935c-0.061,0.2-0.244,0.367-0.458,0.534c-0.183,0.151-1.282,0.534-1.587,0.634
			c-1.038,0.351-2.258,0.568-3.479,0.618C-470.288-71.927-471.966-72.261-473.248-72.778z M-467.785-77.771
			c0.458-0.1,0.916-0.217,1.282-0.384c-0.122-0.05-0.305-0.067-0.458-0.083c-1.282-0.117-2.686,0.267-3.632,0.735
			C-469.647-77.437-468.639-77.571-467.785-77.771z"/>
		<path fill="#003893" d="M-458.87-71.843c-0.61-0.1-1.221-0.401-1.404-0.735c-0.183-0.284-0.244-0.585-0.305-0.868
			c-0.366-1.954-0.427-4.008,0.549-5.895c0.183-0.351,0.458-0.718,0.977-0.935c0.58-0.25,1.282-0.317,1.953-0.184
			c0.305,0.067,0.58,0.184,0.794,0.301c0.458,0.25,0.58,0.701,0.397,1.035c0.946-0.501,2.045-0.968,3.327-1.169
			c0.763-0.117,1.648-0.15,2.411,0.017c0.885,0.167,1.618,0.584,2.045,1.035c0.61,0.668,0.855,1.436,0.855,2.171
			c0,0.284-0.244,0.584-0.61,0.785c-1.251,0.685-3.388,0.167-3.388-0.801c0-0.384-0.061-0.751-0.336-1.102
			c-1.038,0.234-1.831,0.751-2.442,1.269c-0.794,0.718-1.404,1.503-1.77,2.305c-0.275,0.584-0.427,1.185-0.549,1.786
			C-456.49-72.144-457.649-71.676-458.87-71.843z"/>
		<path fill="#003893" d="M-442.936-71.776c-0.916-0.134-1.801-0.401-2.35-0.801c-0.671-0.468-0.977-1.052-0.855-1.653
			c0.031-0.317,0.488-0.617,0.977-0.801c0.458-0.167,1.129-0.167,1.679-0.083c0.427,0.067,0.794,0.267,1.038,0.468
			c0.244,0.2,0.305,0.468,0.275,0.701c0.397,0.134,0.885,0.183,1.373,0.183c0.58,0.017,1.16-0.016,1.679-0.134
			c0.549-0.116,1.007-0.35,0.794-0.634c-0.214-0.25-1.465-0.45-1.923-0.551c-1.251-0.251-2.564-0.551-3.51-1.069
			c-1.892-1.019-0.855-2.688,1.312-3.54c0.61-0.234,1.251-0.468,1.953-0.584c0.641-0.117,1.343-0.167,2.014-0.1
			c1.709,0.15,3.357,1.102,3.357,2.054c-0.031,0.434-0.305,0.935-0.855,1.236c-0.397,0.217-1.007,0.284-1.557,0.267
			c0.824,0.184,1.618,0.451,2.167,0.818c0.732,0.484,1.16,1.153,1.068,1.77c-0.091,0.534-0.488,1.086-1.129,1.486
			c-0.885,0.568-2.228,0.951-3.571,1.085C-440.281-71.526-441.685-71.593-442.936-71.776z M-438.48-77.036
			c-0.397-0.15-0.671-0.417-0.763-0.685c-0.061-0.167,0-0.351,0.061-0.518c-0.61,0.134-1.19,0.367-1.526,0.668
			C-440.037-77.32-439.243-77.187-438.48-77.036z"/>
	</g>
	<path fill="#FFFFFF" d="M-576.35-194.109c0.009-0.056,0.016-0.111,0.022-0.167c-2.025,2.319-5.757,4.084-10.248,4.864l-0.563-0.472
		l4.048-0.681l-3.776-1.05l2.875-1.688l-4.236,0.113l0.93-2.242l-3.56,1.246l-1.263-2.196l-1.931,2.045l-3.119-1.561l0.217,2.296
		l-4.138-0.507l2.305,1.932l-4.049,0.681l3.777,1.05l-0.703,0.413c-4.181-1.189-7.306-3.277-8.577-5.751
		c-0.011,0.055-0.021,0.111-0.03,0.166c-0.609,3.869,3.547,7.367,9.824,8.79l0,0.001l0.09,0.02c0.035,0.008,0.069,0.015,0.104,0.023
		l0.103,0.023l0.001,0c1.3,0.278,2.688,0.469,4.14,0.556v0l0.002,0c0.126,0.008,0.253,0.015,0.381,0.021
		c0.127,0.006,0.255,0.011,0.381,0.015l0.002,0l0,0c1.458,0.05,2.885-0.008,4.253-0.161l0.001,0l0.11-0.013
		c0.033-0.004,0.067-0.008,0.1-0.011l0.087-0.01c0.005,0,0.011-0.002,0.016-0.002l0-0.001
		C-582.147-187.183-576.959-190.24-576.35-194.109z"/>
	<polygon fill="#FFFFFF" points="-639.847,-136.842 -642.11,-133.808 -644.373,-136.842 -649.105,-134.834 -648.293,-138.08 
		-654.227,-137.636 -650.556,-140.225 -656.101,-141.463 -650.556,-142.701 -654.227,-145.29 -648.293,-144.846 -649.105,-148.092 
		-644.373,-146.084 -642.11,-149.117 -639.847,-146.084 -635.114,-148.092 -635.927,-144.846 -629.993,-145.29 -633.664,-142.701 
		-628.119,-141.463 -633.664,-140.225 -629.993,-137.636 -635.927,-138.08 -635.114,-134.834 	"/>
	<g>
		<g>
			<path fill="#DC143C" d="M-347.771-123.729c1.714-1.069,3.471-2.059,5.558-2.841c5.883-2.207,14.161-2.215,19.709,0.357
				c5.962,2.765,5.963,7.292,0,10.056c-2.926,1.357-6.747,2.017-10.549,1.966c-8.007-0.108-12.057-2.721-16.45-5.554
				c-0.786-0.507-1.553-1.022-2.34-1.53c-3.817-2.463-7.337-4.733-13.624-4.818c-5.231-0.07-11.257,1.86-11.113,5.009
				c0.058,1.276,1.239,2.46,3.121,3.333c4.178,1.937,10.499,1.912,14.961,0.275c1.949-0.715,3.653-1.707,5.356-2.784
				c0.267,0.174,0.535,0.348,0.806,0.518c0.557,0.372,1.107,0.736,1.675,1.102c-1.755,1.095-3.558,2.107-5.715,2.899
				c-5.876,2.157-14.071,2.128-19.551-0.414c-2.691-1.248-4.38-2.978-4.466-4.879c-0.201-4.38,7.554-7.244,15.015-7.144
				c8.007,0.108,12.057,2.721,16.449,5.554c0.787,0.508,1.555,1.024,2.34,1.53c3.818,2.463,7.338,4.733,13.624,4.818
				c2.861,0.038,5.785-0.452,7.992-1.475c4.159-1.929,4.159-4.938,0-6.866c-4.232-1.962-10.624-1.901-15.089-0.226
				c-1.895,0.711-3.56,1.681-5.223,2.732C-346.101-122.659-346.933-123.19-347.771-123.729L-347.771-123.729z"/>
			<path fill="#DC143C" d="M-332.631-113.791c-0.146,0-0.292-0.001-0.44-0.003c-8.333-0.113-12.536-2.824-16.985-5.695
				c-0.393-0.253-0.782-0.509-1.171-0.765c-0.388-0.256-0.777-0.511-1.17-0.765c-3.824-2.467-7.126-4.598-13.088-4.678
				c-3.049-0.05-6.171,0.617-8.179,1.716c-1.481,0.811-2.237,1.808-2.188,2.885c0.05,1.127,1.068,2.206,2.863,3.04
				c3.779,1.751,9.703,1.857,14.086,0.248c1.925-0.707,3.643-1.722,5.213-2.714l0.558-0.353l0.548,0.357
				c0.311,0.202,0.551,0.359,0.796,0.512c0.569,0.381,1.116,0.742,1.682,1.106l0.407,0.262l-0.415,0.258
				c-1.576,0.982-3.503,2.103-5.857,2.967c-6.299,2.312-14.89,2.127-20.426-0.441c-2.957-1.371-4.635-3.208-4.723-5.172
				c-0.087-1.885,1.201-3.612,3.725-4.993c3.036-1.663,7.539-2.604,12.035-2.559c8.333,0.113,12.536,2.824,16.985,5.695
				c0.38,0.245,0.757,0.492,1.131,0.74c0.402,0.264,0.803,0.528,1.209,0.79c3.826,2.468,7.128,4.598,13.088,4.678
				c2.794,0.047,5.531-0.466,7.504-1.381c1.845-0.856,2.863-1.968,2.863-3.13c0-1.163-1.018-2.274-2.863-3.13
				c-3.821-1.772-9.795-1.856-14.208-0.201c-1.875,0.703-3.553,1.696-5.085,2.664l-0.565,0.357l-0.547-0.366
				c-0.693-0.463-1.394-0.914-2.101-1.368l-0.784-0.504l0.413-0.258c1.535-0.957,3.411-2.051,5.694-2.907
				c6.328-2.375,14.989-2.215,20.589,0.381c3.049,1.414,4.728,3.307,4.728,5.332c0,2.024-1.679,3.918-4.728,5.332
				C-324.913-114.519-328.662-113.791-332.631-113.791z M-365.746-126.493c0.099,0,0.197,0.001,0.297,0.002
				c6.614,0.09,10.279,2.455,14.16,4.959c0.397,0.256,0.789,0.513,1.181,0.771c0.385,0.254,0.769,0.508,1.16,0.759
				c4.418,2.849,8.232,5.311,15.914,5.414c3.736,0.055,7.346-0.613,10.06-1.872c2.718-1.26,4.215-2.938,4.215-4.725
				c0-1.787-1.496-3.465-4.215-4.725c-5.11-2.369-13.027-2.508-18.827-0.332c-1.952,0.732-3.614,1.664-5.007,2.518
				c0.517,0.332,1.031,0.663,1.54,0.998c1.444-0.893,3.019-1.78,4.798-2.446c4.941-1.853,11.657-1.748,15.968,0.251
				c2.178,1.01,3.377,2.336,3.377,3.737c0,1.4-1.199,2.727-3.377,3.736c-2.241,1.04-5.33,1.605-8.479,1.57
				c-6.614-0.09-10.279-2.455-14.159-4.958c-0.412-0.264-0.816-0.531-1.221-0.797c-0.373-0.245-0.745-0.49-1.123-0.734
				c-4.416-2.849-8.23-5.31-15.913-5.414c-4.11-0.062-8.208,0.814-10.97,2.325c-2.234,1.224-3.376,2.749-3.299,4.411
				c0.078,1.734,1.573,3.363,4.209,4.585c5.052,2.342,12.905,2.505,18.677,0.387c2.016-0.741,3.726-1.697,5.159-2.575
				c-0.43-0.279-0.852-0.559-1.276-0.844c-0.084-0.052-0.168-0.105-0.254-0.16c-1.485,0.92-3.107,1.831-4.943,2.504
				c-4.91,1.804-11.572,1.676-15.835-0.301c-2.118-0.982-3.316-2.27-3.377-3.626c-0.06-1.299,0.845-2.498,2.613-3.466
				C-372.479-125.753-369.075-126.493-365.746-126.493z"/>
		</g>
	</g>
</g>
</svg>
